<?xml version="1.0" standalone="no"?>
<!DOCTYPE svg PUBLIC "-//W3C//DTD SVG 1.1//EN" "http://www.w3.org/Graphics/SVG/1.1/DTD/svg11.dtd" >
<svg xmlns="http://www.w3.org/2000/svg">
<metadata>Generated by IcoMoon</metadata>
<defs>
<font id="nichebat" horiz-adv-x="1024">
<font-face units-per-em="1024" ascent="960" descent="-64" />
<missing-glyph horiz-adv-x="1024" />
<glyph unicode="&#x20;" horiz-adv-x="512" d="" />
<glyph unicode="&#xe600;" glyph-name="add" horiz-adv-x="1023" d="M805.856 506.677h-233.287v226.189c0 30.758-26.026 55.837-56.784 55.837s-56.784-25.079-56.784-55.837v-226.189h-229.028c-30.758 0-55.837-26.026-55.837-56.784s25.079-56.784 55.837-56.784h229.028v-235.652c0-30.758 26.026-55.837 56.784-55.837s56.784 25.079 56.784 55.837v235.652h233.287c30.758 0 55.837 26.026 55.837 56.784s-25.079 56.784-55.837 56.784z" />
<glyph unicode="&#xe601;" glyph-name="add-sharp" horiz-adv-x="1023" d="M804.436 506.677h-231.867v227.135h-113.567v-227.135h-227.135v-113.567h227.135v-236.599h113.567v236.599h231.867z" />
<glyph unicode="&#xe602;" glyph-name="apply" horiz-adv-x="1023" d="M693.235 748.007h-31.704c0 18.928-15.616 33.124-34.543 33.124h-13.25c-6.152 14.196-17.035 18.928-29.811 18.928h-74.292c-12.776 0-24.133-4.732-29.811-18.928h-13.25c-18.928 0-34.543-14.196-34.543-33.124h-31.704c-43.061 0-78.078-35.017-78.078-78.078v-388.022c0-43.061 35.017-78.078 78.078-78.078h293.383c43.061 0 78.078 35.017 78.078 78.078v388.022c-0.473 43.061-35.49 78.078-78.551 78.078zM728.725 281.908c0-19.401-16.089-35.49-35.49-35.49h-293.383c-19.401 0-35.49 16.089-35.49 35.49v388.022c0 19.401 16.089 35.49 35.49 35.49h42.588c6.152-5.678 14.669-9.464 23.66-9.464h160.887c8.991 0 17.508 3.786 23.66 9.464h42.588c19.401 0 35.49-16.089 35.49-35.49v-388.022zM425.878 672.296h241.331v-23.66h-241.331v23.66zM425.878 634.44h212.939v-23.66h-212.939v23.66zM425.878 572.924h194.011v-23.66h-194.011v23.66zM425.878 535.068h217.671v-23.66h-217.671v23.66zM491.179 266.292c0.473-0.473 0.946-1.42 1.42-1.893 0-0.473 0.473-0.473 0.946-0.473l53.945 15.616-27.445 34.543-28.865-47.793zM677.146 444.214l-6.152-5.205 28.865-35.963 6.625 5.205c9.937 8.044 11.357 22.713 3.312 32.177-8.518 10.41-23.187 11.83-32.651 3.786zM509.634 255.882c0 0 0.473 0.473 0.473 0.473l-1.42-0.473c0 0 0.473 0 0.946 0zM527.616 322.603l28.392-36.436 134.388 109.782-28.392 35.963zM425.878 487.749h127.763v-23.66h-127.763v23.66z" />
<glyph unicode="&#xe603;" glyph-name="back" horiz-adv-x="1023" d="M769.893 525.604h-477.457l206.787 204.895c21.767 21.767 22.24 57.257 0.473 79.024s-57.257 22.24-79.024 0.473l-303.793-301.427c0 0 0 0 0 0s0 0 0 0c-0.473-0.473-1.42-1.42-1.893-2.366-0.473-0.473-0.946-1.42-1.893-1.893-0.473-0.946-1.42-1.42-1.893-2.366-0.473-0.473-0.946-1.42-1.42-1.893-0.473-0.946-0.946-1.893-1.42-2.366-0.473-0.946-0.946-1.42-1.42-2.366s-0.946-1.893-1.42-2.839c-0.473-0.946-0.946-1.42-0.946-2.366-0.473-0.946-0.473-1.893-0.946-2.839s-0.473-1.42-0.946-2.366c-0.473-0.946-0.473-1.893-0.473-2.839s-0.473-1.42-0.473-2.366c0-0.946-0.473-1.893-0.473-2.839s-0.473-1.893-0.473-2.366c0-0.946 0-1.893 0-2.839s0-1.893 0-2.366c0-0.946 0-1.893 0-2.839s0-1.893 0-2.839c0-0.946 0.473-1.893 0.473-2.839s0-1.893 0.473-2.839c0-0.946 0.473-1.893 0.473-2.839s0.473-1.893 0.473-2.839c0.473-0.946 0.473-1.893 0.946-2.366 0.473-0.946 0.473-1.893 0.946-2.366 0.473-0.946 0.946-1.893 1.42-2.366 0.473-0.946 0.473-1.42 0.946-2.366s0.946-1.893 1.42-2.366c0.473-0.946 0.946-1.42 1.42-2.366s1.42-1.893 1.893-2.366c0.473-0.473 0.946-1.42 1.42-1.893 0.473-0.946 1.42-1.42 2.366-2.366 0.473-0.473 0.946-0.946 1.42-1.893 0 0 0 0 0 0s0 0 0 0l301.427-298.588c10.884-10.884 25.079-16.089 39.275-16.089s28.865 5.678 39.749 16.562c21.767 21.767 21.767 57.257-0.473 79.024l-203.475 201.582h476.51c30.758 0 55.837 26.026 55.837 56.784s-25.079 56.784-55.837 56.784z" />
<glyph unicode="&#xe604;" glyph-name="cancel" horiz-adv-x="1023" d="M759.956 280.015l-166.566 166.566 164.673 164.673c21.767 21.767 21.294 57.73-0.473 79.497s-57.73 22.24-79.497 0.473l-164.673-164.673-160.414 160.887c-21.767 21.767-57.73 21.294-79.97-0.473-21.767-22.24-22.24-58.203-0.473-79.97l159.941-159.941-161.834-161.834c-21.767-21.767-21.294-57.73 0.473-79.497s57.73-22.24 79.497-0.473l161.834 161.834 166.566-166.566c21.767-21.767 57.73-21.294 79.497 0.473s23.187 57.257 1.42 79.024z" />
<glyph unicode="&#xe605;" glyph-name="check" horiz-adv-x="1023" d="M861.693 691.697c-21.767 21.767-57.73 22.24-79.497 0.473l-368.148-368.148-126.817 119.246c-21.767 21.767-53.945 26.499-76.185 4.732-21.767-21.767-22.713-46.373-0.946-68.14l159.941-170.351c2.366-2.366 4.732-4.259 7.571-6.152 21.767-19.874 56.311-19.874 77.604 1.42l406.95 406.95c21.767 21.767 21.294 57.73-0.473 79.97z" />
<glyph unicode="&#xe606;" glyph-name="close" horiz-adv-x="1023" d="M762.322 601.316h-219.091l95.113 94.166c9.937 9.937 9.937 26.026 0 36.436-9.937 9.937-26.026 9.937-36.436 0l-139.12-138.174c0 0 0 0 0 0s0 0 0 0c-0.473-0.473-0.946-1.42-1.42-1.893s-0.946-1.42-1.42-1.893c-0.473-0.946-0.946-1.42-1.42-2.366s-0.946-1.42-0.946-2.366c-0.473-0.946-0.473-1.42-0.946-2.366 0-0.946-0.473-1.42-0.473-2.366s0-1.893-0.473-2.366c0-0.946 0-1.42 0-2.366s0-1.42 0-2.366c0-0.946 0-1.42 0.473-2.366 0-0.946 0.473-1.42 0.473-2.366s0.473-1.42 0.946-2.366c0.473-0.946 0.946-1.42 1.42-2.366s0.473-1.42 0.946-2.366c0.473-0.946 0.946-1.42 1.893-2.366 0.473-0.473 0.946-1.42 1.42-1.893 0 0 0 0 0 0s0 0 0 0l138.174-136.754c5.205-4.732 11.357-7.571 17.982-7.571s13.25 2.366 17.982 7.571c9.937 9.937 9.937 26.499 0 36.436l-93.22 92.274h218.617c14.196 0 25.553 11.83 25.553 26.026-0.473 14.196-11.83 26.026-26.026 26.026zM646.861 386.484c-1.42 0-2.839 0-4.259 0.473-19.874 0-37.383-13.723-37.383-32.177v-66.721l-280.606 1.42 1.893 466.573 203.475-0.946c13.723 0 24.606 16.562 24.606 36.436s-10.41 35.963-23.66 35.963l-252.214 0.946c-13.723 0-24.606-16.562-24.606-36.436 0-3.786 0.473-7.098 0.946-10.41-0.473-2.839-0.473-5.678-0.473-8.991l-2.366-501.116c0-5.678 0.946-11.357 1.893-16.089 0-0.946 0-1.42 0-2.366 0-19.874 15.142-36.436 34.070-36.436l354.898-1.42c15.616 0 28.865 11.357 33.124 26.499 1.893 3.786 3.312 8.518 3.312 13.25v102.211c0.473 16.089-14.669 27.445-32.651 29.338z" />
<glyph unicode="&#xe607;" glyph-name="copy" horiz-adv-x="1023" d="M353.006 748.007h291.017c17.982 0 33.124-14.196 35.017-33.124h42.588c-2.366 42.588-36.436 75.712-78.078 75.712h-290.543c-43.061 0-78.551-35.017-78.551-78.078v-389.442c0-41.641 33.124-75.712 75.712-78.078v42.588c-18.928 2.366-33.124 17.035-33.124 35.017v389.915c0 19.401 16.089 35.49 35.963 35.49zM740.555 695.956h-293.383c-43.061 0-78.078-35.017-78.078-78.078v-388.022c0-43.061 35.017-78.078 78.078-78.078h293.383c43.061 0 78.078 35.017 78.078 78.078v388.022c0 43.061-35.017 78.078-78.078 78.078zM776.044 229.856c0-19.401-16.089-35.49-35.49-35.49h-293.383c-19.401 0-35.49 16.089-35.49 35.49v388.022c0 19.401 16.089 35.49 35.49 35.49h293.383c19.401 0 35.49-16.089 35.49-35.49v-388.022zM477.93 577.656h208.207v-23.66h-208.207v23.66zM477.93 525.604h231.867v-23.66h-231.867v23.66zM477.93 473.553h165.619v-23.66h-165.619v23.66zM477.93 383.645h231.867v-23.66h-231.867v23.66zM477.93 336.325h217.671v-23.66h-217.671v23.66zM477.93 289.006h184.547v-23.66h-184.547v23.66z" />
<glyph unicode="&#xe608;" glyph-name="delete" horiz-adv-x="1023" d="M335.97 203.357c2.366-26.026 26.026-47.32 52.052-47.32h245.59c26.026 0 49.686 21.294 52.052 46.847l32.651 326.506c2.839 26.026-16.562 47.32-42.588 47.32l-329.819 0.946c-26.026 0-45.427-21.294-42.588-46.847l32.651-327.453zM329.346 601.316h360.104c19.401 0 35.017 18.928 35.017 42.588s-15.616 42.588-35.017 42.588h-53.945c-0.946 28.865-24.606 52.052-53.945 52.052h-145.745c-28.865 0-52.998-23.187-53.945-52.052h-52.525c-19.401 0-35.017-18.928-35.017-42.588s15.616-42.588 35.017-42.588z" />
<glyph unicode="&#xe609;" glyph-name="down" horiz-adv-x="1023" d="M760.429 649.109c21.294 35.963 4.732 65.301-36.909 65.301l-435.815 0.473c-41.641 0-57.73-28.865-35.963-64.355l219.564-354.898c21.767-35.49 57.257-35.017 78.551 0.473l210.573 353.006z" />
<glyph unicode="&#xe60a;" glyph-name="email" horiz-adv-x="1023" d="M891.031 727.66c0 19.874-5.205 44.007-37.856 44.007h-656.799c-32.651 0-36.436-25.079-36.436-44.481 0 0 0 0 0-0.473 0 0 0-0.473 0-0.473l-1.893-454.743c0-24.133 16.562-44.007 35.963-44.481 1.893 0 3.312 0 4.732 0.473 2.839-0.473 6.152-0.473 9.937-0.473l643.076-9.464c32.177 0 36.436 24.133 36.436 44.007l2.839 465.153c0 0.473 0 0.473 0 0.946 0 0 0 0 0 0zM667.209 697.375l123.031-0.473-123.031-102.211v-0.473l-142.906-118.299-268.776 222.876 411.682-1.42zM815.32 291.372l-585.346 1.893 1.42 321.774 261.678-216.251c8.518-7.098 19.401-10.41 30.285-10.41 0 0 0.473 0 0.473 0s0.473 0 0.473 0c10.884 0 22.24 3.312 30.758 10.41l112.148 92.274v0.473l150.004 124.451-1.893-324.614z" />
<glyph unicode="&#xe60b;" glyph-name="filter" horiz-adv-x="1023" d="M659.165 571.505l-291.017 0.946c-41.641 0-57.73-28.865-35.963-63.882l145.272-234.233-0.946-193.065c0-23.66 17.982-42.588 39.749-42.588s40.222 18.928 40.222 42.115l-0.473 194.011 139.12 231.394c22.24 35.963 5.678 65.301-35.963 65.301z" />
<glyph unicode="&#xe60c;" glyph-name="forward" horiz-adv-x="1023" d="M811.061 431.438c0.946 0.946 1.42 1.42 2.366 2.366 0.473 0.473 0.946 1.42 1.42 1.893 0.473 0.946 1.42 1.42 1.893 2.366s0.946 1.42 1.42 2.366c0.473 0.946 0.946 1.893 1.42 2.366 0.473 0.946 0.946 1.42 0.946 2.366 0.473 0.946 0.946 1.893 0.946 2.366 0.473 0.946 0.473 1.893 0.946 2.366 0.473 0.946 0.473 1.893 0.946 2.366 0.473 0.946 0.473 1.893 0.473 2.839s0.473 1.893 0.473 2.839c0 0.946 0.473 1.893 0.473 2.839s0.473 1.893 0.473 2.839c0 0.946 0 1.893 0 2.839s0 1.893 0 2.839c0 0.946 0 1.893 0 2.366 0 0.946 0 1.893 0 2.839s0 1.893-0.473 2.366c0 0.946-0.473 1.893-0.473 2.839s-0.473 1.42-0.473 2.366c0 0.946-0.473 1.893-0.473 2.839s-0.473 1.42-0.946 2.366c-0.473 0.946-0.473 1.893-0.946 2.839s-0.473 1.42-0.946 2.366c-0.473 0.946-0.946 1.893-1.42 2.839s-0.946 1.42-1.42 2.366c-0.473 0.946-0.946 1.893-1.42 2.366-0.473 0.946-0.946 1.42-1.42 1.893-0.473 0.946-0.946 1.42-1.893 2.366-0.473 0.473-0.946 1.42-1.893 1.893-0.473 0.946-1.42 1.42-1.893 2.366 0 0 0 0 0 0s0 0 0 0l-303.793 300.954c-21.767 21.767-57.257 21.767-79.024-0.473-21.767-21.767-21.767-57.257 0.473-79.024l206.787-204.895h-477.457c-30.758 0-55.837-26.026-55.837-56.784s25.079-56.784 55.837-56.784h476.51l-203.475-201.582c-21.767-21.767-22.24-57.257-0.473-79.024 10.884-10.884 25.079-16.562 39.749-16.562 14.196 0 28.392 5.205 39.275 16.089l301.427 298.588c0 0 0 0 0 0s0 0 0 0c0.946 1.42 1.42 1.893 1.893 2.366z" />
<glyph unicode="&#xe60d;" glyph-name="joo" horiz-adv-x="1023" d="M760.429 614.092c-0.473 0.946-0.946 1.893-1.893 2.366-1.893 2.366-4.259 3.786-6.152 6.152-6.625 6.152-13.25 12.776-19.874 18.928-18.928 17.982-37.383 35.49-56.311 53.471-17.508 16.562-35.017 33.124-52.525 49.686-5.205 4.732-9.937 10.41-16.089 13.723-7.098 4.259-12.776 3.786-20.348 3.786s-14.669 0-22.24 0c-24.133 0-48.266 0-72.399 0s-48.266 0-72.399 0c-8.991 0-17.982 0-27.445 0-44.481 0-85.176-30.285-85.176-74.765v-396.54c0-44.481 40.695-87.068 85.176-87.068h291.017c44.481 0 78.078 43.061 78.078 87.068 0 7.571 0 14.669 0 22.24 0 18.455 0 37.383 0 55.837 0 24.606 0 49.213 0 73.346 0 25.079 0 49.686 0 74.765 0 19.874 0 39.749 0 60.096 0 6.625 0 12.776 0 19.401 0 5.678 1.42 13.25-1.42 17.508zM694.181 614.566l-107.416 0.946v99.372l107.416-100.318zM683.771 251.15h-291.017c-18.455 0-37.856 21.767-37.856 39.749v396.54c0 18.455 19.401 27.445 37.856 27.445h160.887v-132.495h16.562l144.325-0.946v-290.543c0-17.982-12.776-39.749-30.758-39.749zM577.301 464.562c-15.616-2.839-30.285-10.884-46.847-17.035-22.713 17.508-37.383 22.713-59.623 21.294-24.133-1.42-54.418-13.723-61.516-24.606 52.052 17.982 97.952 17.035 127.763-39.749 2.366 3.786 3.786 6.625 5.678 9.464 11.357 19.874 34.543 29.811 56.311 24.133 23.66-6.152 39.275-28.865 36.436-52.998-2.839-26.026-22.24-44.007-48.266-44.481-26.499-0.473-46.373 17.035-50.632 43.061-0.946 6.625-2.366 12.776-4.259 18.928-14.669 40.695-60.096 60.569-100.318 44.007-39.749-16.562-57.73-62.462-39.275-102.211 17.508-38.329 64.828-54.418 102.684-35.017 6.625 3.312 12.776 8.044 19.401 11.83 17.508-15.142 36.909-23.66 60.096-22.24 11.357 0.946 22.713 2.839 33.597 6.625 5.205 1.893 9.464 4.259 13.723 7.098s7.571 7.098 11.83 9.464c-16.562-10.41-36.436-14.669-55.837-12.303-5.205 0.473-10.884 1.893-15.616 3.312-23.66 7.571-43.534 26.026-52.998 49.213-6.152-19.874-25.553-35.017-45.9-35.49s-41.168 12.776-48.739 32.177c-7.571 19.401-0.946 43.061 15.142 56.311 10.884 8.991 25.079 12.776 38.802 10.884s26.499-10.41 33.597-22.24c8.518-14.196 9.464-31.704 16.089-46.847 8.991-20.821 28.865-35.963 51.105-40.695 14.669-2.839 30.285-1.42 44.481 3.786 36.436 13.723 55.364 53.471 44.954 90.854-9.937 35.49-45.9 59.623-81.863 53.471z" />
<glyph unicode="&#xe60e;" glyph-name="more" horiz-adv-x="1023" d="M693.235 748.007h-293.383c-43.061 0-78.078-35.017-78.078-78.078v-388.022c0-43.061 35.017-78.078 78.078-78.078h293.383c43.061 0 78.078 35.017 78.078 78.078v388.022c0 43.061-35.017 78.078-78.078 78.078zM728.725 281.908c0-19.401-16.089-35.49-35.49-35.49h-293.383c-19.401 0-35.49 16.089-35.49 35.49v388.022c0 19.401 16.089 35.49 35.49 35.49h293.383c19.401 0 35.49-16.089 35.49-35.49v-388.022zM425.878 672.296h241.331v-23.66h-241.331v23.66zM425.878 634.44h212.939v-23.66h-212.939v23.66zM425.878 572.924h194.011v-23.66h-194.011v23.66zM425.878 473.553h151.423v-23.66h-151.423v23.66zM425.878 430.965h184.547v-23.66h-184.547v23.66zM425.878 535.068h217.671v-23.66h-217.671v23.66zM421.146 374.181h246.063v-23.66h-246.063v23.66zM421.146 331.593h184.547v-23.66h-184.547v23.66zM383.29 672.296h23.66v-23.66h-23.66v23.66zM383.29 572.924h23.66v-23.66h-23.66v23.66zM383.29 374.181h23.66v-23.66h-23.66v23.66zM383.29 473.553h23.66v-23.66h-23.66v23.66z" />
<glyph unicode="&#xe60f;" glyph-name="open" horiz-adv-x="1023" d="M785.035 563.46c0.473 0.946 0.946 1.42 1.42 2.366s0.473 1.42 0.473 2.366c0.473 0.946 0.473 1.42 0.473 2.366s0 1.42 0.473 2.366c0 0.946 0 1.42 0 2.366s0 1.42 0 2.366c0 0.946 0 1.893-0.473 2.366 0 0.946-0.473 1.42-0.473 2.366-0.473 0.946-0.473 1.893-0.946 2.366-0.473 0.946-0.946 1.42-0.946 2.366-0.473 0.946-0.946 1.42-1.42 2.366-0.473 0.473-0.946 1.42-1.42 1.893s-0.946 1.42-1.42 1.893c0 0 0 0 0 0s0 0 0 0l-139.12 138.174c-9.937 9.937-26.499 9.937-36.436 0s-9.937-26.499 0-36.436l95.113-94.166h-219.091c-14.196 0-25.553-11.83-25.553-26.026s11.357-26.026 25.553-26.026h218.618l-52.052-51.105-0.473-72.399 132.969 132.022c0 0 0 0 0 0s0 0 0 0c0.473 0.473 0.946 1.42 1.42 1.893s1.42 1.42 1.893 2.366c0.473 0.473 0.946 1.42 1.42 1.893zM647.335 497.686l-41.641-41.168c-9.937-9.937-9.937-26.026 0-36.436 5.205-5.205 11.83-7.571 17.982-7.571 6.625 0 13.25 2.366 17.982 7.571l5.205 5.205 0.473 72.399zM605.22 354.307v-66.721l-280.606 1.42 1.893 466.573 203.475-0.946c13.723 0 24.606 16.562 24.606 36.436s-10.41 36.436-23.66 36.436l-252.214 0.946c-13.723 0-24.606-16.562-24.606-36.436 0-3.786 0.473-7.098 0.946-10.41-0.473-2.839-0.473-5.678-0.473-8.991l-2.366-501.116c0-5.678 0.946-11.357 1.893-16.089 0-0.946 0-1.42 0-2.366 0-19.874 15.142-36.436 34.070-36.436l354.898-1.42c15.616 0 28.865 11.357 33.124 26.499 1.893 3.786 3.312 8.518 3.312 13.25v102.211c0 17.035-15.142 28.392-32.651 29.811-1.42 0-2.839 0-4.259 0.473-19.874-0.946-37.383-14.669-37.383-33.124z" />
<glyph unicode="&#xe610;" glyph-name="pdf" horiz-adv-x="1023" d="M760.429 614.092c-0.473 0.946-0.946 1.893-1.893 2.366-1.893 2.366-4.259 3.786-6.152 6.152-6.625 6.152-13.25 12.776-19.874 18.928-18.928 17.982-37.383 35.49-56.311 53.471-17.508 16.562-35.017 33.124-52.525 49.686-5.205 4.732-9.937 10.41-16.089 13.723-7.098 4.259-12.776 3.786-20.348 3.786s-14.669 0-22.24 0c-24.133 0-48.266 0-72.399 0s-48.266 0-72.399 0c-8.991 0-17.982 0-27.445 0-44.481 0-85.176-30.285-85.176-74.765v-396.54c0-44.481 40.695-87.068 85.176-87.068h291.017c44.481 0 78.078 43.061 78.078 87.068 0 7.571 0 14.669 0 22.24 0 18.455 0 37.383 0 55.837 0 24.606 0 49.213 0 73.346 0 25.079 0 49.686 0 74.765 0 19.874 0 39.749 0 60.096 0 6.625 0 12.776 0 19.401 0 5.678 1.42 13.25-1.42 17.508zM694.181 614.566l-107.416 0.946v99.372l107.416-100.318zM683.771 251.15h-291.017c-18.455 0-37.856 21.767-37.856 39.749v396.54c0 18.455 19.401 27.445 37.856 27.445h160.887v-132.495h16.562l144.325-0.946v-290.543c0-17.982-12.776-39.749-30.758-39.749zM427.771 459.357h-35.017v-156.155h23.66v56.784h11.357c25.079 0 35.963 15.142 35.963 40.695v20.821c0 25.079-10.884 37.856-35.963 37.856zM440.074 398.787c0-11.357-4.259-15.142-12.303-15.142h-11.357v52.052h11.357c8.044 0 12.303-1.42 12.303-12.776v-24.133zM517.678 459.357h-39.749v-156.155h39.749c25.079 0 35.963 12.303 35.963 37.856v80.444c0 25.079-11.357 37.856-35.963 37.856zM529.982 339.638c0-11.357-5.205-17.508-12.776-17.508h-15.616v113.567h15.616c8.044 0 12.776-1.893 12.776-13.25v-82.81zM572.569 303.201h23.66v66.248h33.124v18.928h-33.124v47.32h42.588v23.66h-66.248z" />
<glyph unicode="&#xe611;" glyph-name="ribbon" horiz-adv-x="1023" d="M776.991 540.747c0 4.732-0.946 8.991-2.839 13.25-2.366 3.786-4.732 6.625-7.571 8.044 0.473 0.946 1.42 1.42 1.893 2.366 0.946 1.893 1.893 4.259 2.839 6.625 2.839 9.464 2.366 20.348-4.732 27.445-2.839 2.839-5.678 4.732-8.044 5.678 1.42 2.839 2.839 6.152 3.312 9.937 1.42 9.464-1.893 20.348-8.991 26.499-3.312 2.366-6.152 3.786-8.991 4.259 0.946 3.312 1.42 6.625 1.42 10.41 0.473 9.937-5.205 19.874-13.25 24.606-3.312 1.893-6.625 2.839-9.464 2.839 0.473 3.312 0.473 6.625-0.473 10.41-0.946 4.732-2.839 9.464-5.678 13.723s-7.098 6.625-11.357 8.518c-3.786 1.42-7.098 1.42-9.937 0.946 0 3.312-0.473 7.098-1.893 10.41-1.893 4.259-4.732 8.518-8.044 12.303-3.786 3.312-7.571 6.152-12.776 6.625-3.786 0.473-7.098 0.473-9.937-0.473-0.473 3.312-1.893 6.625-3.312 9.937-2.366 4.732-5.678 8.044-9.937 10.884s-8.518 4.259-13.25 4.732c-2.839 0-5.205-0.473-7.571-0.946-0.946-0.473-1.42-0.473-2.366-0.946-0.946 3.312-2.839 6.152-5.205 8.991-3.312 3.786-7.098 7.098-11.357 9.464-4.732 1.893-9.464 2.839-14.196 1.893-3.786-0.473-7.098-1.893-8.991-3.312-1.42 2.839-3.786 5.678-6.625 8.044-3.786 3.312-8.044 5.678-12.776 7.098-2.366 0.473-4.732 0.946-7.098 0.946s-4.732-0.473-7.098-1.42c-3.786-1.42-6.625-3.312-8.518-5.205-1.893 2.839-4.732 5.205-7.571 7.098-4.259 2.839-8.991 4.259-13.723 4.732s-9.937-0.473-14.196-2.366c-3.312-1.42-6.152-3.786-7.571-6.152-2.366 2.366-5.205 3.786-8.518 5.205-4.732 1.893-9.464 2.839-14.196 2.839s-9.464-1.893-13.25-4.732c-3.312-2.366-5.205-4.732-6.625-7.571-2.839 1.893-6.152 3.312-9.464 4.259-9.464 1.893-20.348 0.473-26.972-6.625-2.839-2.839-4.259-5.678-5.205-8.518-2.839 1.42-6.625 2.366-9.937 2.366-2.366 0.473-5.205 0-7.571 0-2.366-0.473-4.732-0.946-7.098-1.893-4.259-1.893-8.518-4.732-11.357-8.518-2.366-3.312-3.312-6.152-3.786-8.991-3.312 0.946-6.625 0.946-9.937 0.473-4.732-0.473-9.937-1.893-14.196-4.259s-7.571-6.152-9.464-10.41c-1.893-3.786-2.366-6.625-2.366-9.464-0.946 0-1.893 0-3.312 0-2.366 0-4.732-0.473-7.098-0.946-4.732-1.42-8.991-3.786-12.776-6.625-1.893-1.42-3.786-3.312-4.732-5.205-1.42-1.893-2.366-4.259-2.839-6.625-0.946-3.786-0.946-7.098-0.473-9.937-3.312-0.473-6.625-0.946-9.937-2.366-4.732-1.893-8.518-5.205-11.83-8.991s-5.205-8.044-6.152-12.776c-0.473-3.786 0-7.098 1.42-9.937-3.312-0.946-6.625-2.366-9.464-4.259-4.259-2.839-8.044-6.152-10.41-10.41s-3.786-8.991-3.312-13.723c0-3.786 0.946-7.098 2.366-9.464-3.312-1.42-6.152-3.312-8.518-5.678-7.098-6.625-11.83-17.035-9.464-26.499 0.946-3.786 2.366-6.625 4.259-8.991-2.839-1.893-5.678-4.259-7.571-7.098-5.678-8.044-8.044-18.928-4.732-27.445 1.893-3.786 3.786-6.152 6.152-8.044-2.366-2.366-4.732-5.205-6.152-8.044-0.946-2.366-2.366-4.259-2.839-7.098-0.473-1.42-0.473-2.366-0.946-3.786 0-1.42 0-2.366 0-3.786 0-4.732 1.42-9.937 3.786-13.723 1.893-3.312 4.259-5.678 6.625-7.098-0.473-0.946-1.42-1.42-1.893-2.366-0.946-1.893-1.893-4.259-2.839-6.625-2.839-9.464-2.366-20.348 4.732-27.445 2.839-2.839 5.678-4.732 8.044-5.678-1.42-2.839-2.839-6.152-3.312-9.937-1.42-9.464 1.893-20.348 8.991-26.499 3.312-2.366 6.152-3.786 8.991-4.259-0.946-3.312-1.42-6.625-1.42-10.41-0.473-9.937 5.205-19.874 13.25-24.606 3.312-1.893 6.625-2.839 9.464-2.839-0.473-3.312-0.473-6.625 0.473-10.41 0.946-4.732 2.839-9.464 5.678-13.723s7.098-6.625 11.357-8.518c3.786-1.42 7.098-1.42 9.937-0.946 0-3.312 0.473-7.098 1.893-10.41 1.893-4.259 4.732-8.518 8.044-12.303 3.786-3.312 7.571-6.152 12.776-6.625 0.473 0 0.946 0 1.42 0l-1.42-260.259h24.606l138.647 127.763 147.638-123.505 25.079-0.473 0.946 259.786c1.42 0 2.366 0.473 3.786 0.946 4.732 1.42 8.991 3.786 12.776 6.625 1.893 1.42 3.786 3.312 4.732 5.205 1.42 1.893 2.366 4.259 2.839 6.625 0.946 3.786 0.946 7.098 0.473 9.937 3.312 0.473 6.625 0.946 9.937 2.366 4.732 1.893 8.518 5.205 11.83 8.991s5.205 8.044 6.152 12.776c0.473 3.786 0 7.098-1.42 9.937 3.312 0.946 6.625 2.366 9.464 4.259 4.259 2.839 8.044 6.152 10.41 10.41s3.786 8.991 3.312 13.723c0 3.786-0.946 7.098-2.366 9.464 3.312 1.42 6.152 3.312 8.518 5.678 7.098 6.625 11.83 17.035 9.464 26.499-0.946 3.786-2.366 6.625-4.259 8.991 2.839 1.893 5.678 4.259 7.571 7.098 5.678 8.044 8.044 18.928 4.732 27.445-1.42 3.312-3.786 6.152-5.678 7.571 4.732 4.259 7.571 10.41 8.991 16.562 0.946 1.893 1.42 3.786 1.42 5.678zM506.795 297.050c-133.442 0-242.277 107.416-242.277 239.911s108.835 239.911 242.277 239.911 242.277-107.416 242.277-239.911-108.835-239.911-242.277-239.911zM645.442 112.030l-144.799 124.924-134.388-124.451 0.473 194.484c2.366-0.946 4.732-1.42 6.625-1.42 2.839 0 5.205 0.473 7.571 0.946 0.946 0.473 1.42 0.473 2.366 0.946 0.946-3.312 2.839-6.152 5.205-8.991 3.312-3.786 7.098-7.098 11.357-9.464 4.732-1.893 9.464-2.839 14.196-1.893 3.786 0.473 7.098 1.893 8.991 3.312 1.42-2.839 3.786-5.678 6.625-8.044 3.786-3.312 8.044-5.678 12.776-7.098 2.366-0.473 4.732-0.946 7.098-0.946s4.732 0.473 7.098 1.42c3.786 1.42 6.625 3.312 8.518 5.205 1.893-2.839 4.732-5.205 7.571-7.098 4.259-2.839 8.991-4.259 13.723-4.732s9.937 0.473 14.196 2.366c3.312 1.42 6.152 3.786 7.571 6.152 2.366-2.366 5.205-3.786 8.518-5.205 4.732-1.893 9.464-2.839 14.196-2.839s9.464 1.893 13.25 4.732c3.312 2.366 5.205 4.732 6.625 7.571 2.839-1.893 6.152-3.312 9.464-4.259 9.464-1.893 20.348-0.473 26.972 6.625 2.839 2.839 4.259 5.678 5.205 8.518 2.839-1.42 6.625-2.366 9.937-2.366 2.366-0.473 5.205 0 7.571 0 2.366 0.473 4.732 0.946 7.098 1.893 4.259 1.893 8.518 4.732 11.357 8.518 2.366 3.312 3.312 6.152 3.786 8.991 3.312-0.946 6.625-0.946 9.937-0.473 1.42 0 2.839 0.473 3.786 0.473l-0.473-197.797zM503.956 765.043c-124.924 0-226.189-101.738-226.189-226.189 0-124.924 101.738-226.189 226.189-226.189s226.189 101.738 226.189 226.189c0 124.924-101.264 226.189-226.189 226.189zM503.956 341.057c-109.309 0-197.797 88.961-197.797 197.797s88.961 197.797 197.797 197.797 197.797-88.961 197.797-197.797-88.488-197.797-197.797-197.797z" />
<glyph unicode="&#xe612;" glyph-name="save" horiz-adv-x="1023" d="M794.972 625.449v3.786c0 6.625-2.366 10.884-6.152 14.196 0 0 0 0 0 0l-78.078 84.229c-3.312 2.839-6.152 5.205-8.518 7.098-4.259 5.205-10.41 8.991-20.348 8.991h-481.242c-23.66 0-26.499-21.767-26.972-39.275 0-1.42 0-2.366 0.473-3.786-0.473-2.366-0.473-5.205-0.473-7.571l-2.366-502.063c0-12.776 3.312-24.606 8.518-33.124 0.946-1.42 1.893-2.839 2.839-4.259 5.678-7.098 12.776-11.357 20.348-11.357 1.42 0 2.839 0 4.259 0.473 7.571-1.42 16.089-2.366 24.133-2.366l509.634-1.893c21.767 0 40.222 6.152 46.373 17.508 4.259 3.786 7.098 9.937 7.098 19.401v441.967c0.946 2.366 0.946 4.732 0.473 8.044zM736.769 609.834l-1.893-407.423h-78.551l0.946 226.662c0 0 0 0.473 0 0.473 0 0.473 0 0.473 0 0.473 0 10.884-2.366 23.66-17.982 23.66h-303.793c-0.473 0-0.473 0-0.946 0s-0.946 0-0.946 0h-5.678c-12.776 0-16.089-9.464-17.035-18.928-0.473-1.893-0.946-3.786-0.946-6.152l-0.946-227.135h-73.346l2.366 477.457 99.372-0.473 0.946-133.442c0-1.893 0.473-3.786 1.42-5.678 0-8.518 1.893-18.928 14.669-18.928h262.152c13.25 0 15.142 10.884 15.142 19.401 0 0.946 0 1.893-0.473 2.839 0.473 0.946 0.473 2.366 0.473 3.786l-0.946 131.076h35.963c2.366 0 5.205 0 7.571 0.473l62.462-68.14zM512.473 630.181c0-5.205 10.884-9.937 23.66-9.937s23.66 4.259 23.66 9.937l-0.946 48.739h33.597l0.946-123.978-219.564-0.946-0.946 125.397 138.647-0.473 0.946-48.739zM359.157 414.876l248.429-0.946-0.946-211.519h-248.429l0.946 212.466z" />
<glyph unicode="&#xe613;" glyph-name="select-all" horiz-adv-x="1023" d="M838.506 705.42c-14.196 14.196-36.909 14.196-51.105 0.473l-30.285-29.811-0.473-103.157 81.863 81.863c14.196 13.723 13.723 36.909 0 50.632zM757.116 676.081l-205.841-205.841-80.917 76.658c-14.196 14.196-34.543 17.035-48.739 2.839s-14.669-29.811-0.473-43.534l102.684-109.309c1.42-1.42 3.312-2.839 4.732-3.786 14.196-12.776 35.963-12.776 49.686 0.946l178.869 178.869v103.157zM714.529 402.573v-115.46l-389.442 1.893 1.893 405.057 331.712-1.42c19.874 0 35.963 16.562 35.963 36.436s-16.089 36.436-35.49 36.436l-369.094 1.893c-19.874 0-35.963-16.562-35.963-36.436 0-1.42 0-3.312 0.473-4.732 0-1.42 0-2.839 0-4.732l-1.893-454.743c0-5.205 0.473-9.937 1.893-14.196 0-19.874 18.928-36.436 42.588-36.436l442.913-1.893c5.678 0 10.884 0.946 16.089 2.839 17.508 2.839 32.651 22.24 32.651 45.427l0.473 142.906c0 23.66-15.142 39.275-32.651 41.641-1.42 0-2.839 0.473-4.259 0.473-20.348 0-37.856-19.874-37.856-44.954z" />
<glyph unicode="&#xe614;" glyph-name="up" horiz-adv-x="1023" d="M760.429 339.638c21.294-35.963 4.732-65.301-36.909-65.301l-435.815-0.473c-41.641 0-57.73 28.865-35.963 64.355l219.564 354.898c21.767 35.49 57.257 35.017 78.551-0.473l210.573-353.006z" />
</font>
</defs>
</svg>
